<svg width="460" height="110" viewBox="0 0 460 110" fill="none" xmlns="http://www.w3.org/2000/svg">
  <defs>
    <linearGradient id="gold" x1="0" y1="0" x2="0" y2="1">
      <stop offset="0%" stop-color="#F5D67A"/>
      <stop offset="55%" stop-color="#D4AF37"/>
      <stop offset="100%" stop-color="#B88919"/>
    </linearGradient>
    <filter id="shadow" x="-20%" y="-40%" width="140%" height="180%">
      <feDropShadow dx="0" dy="2" stdDeviation="2" flood-color="#3b1209" flood-opacity="0.35"/>
    </filter>
  </defs>

  <!-- Main center cloud crest -->
  <g filter="url(#shadow)" stroke="url(#gold)" stroke-width="3.2" stroke-linecap="round" stroke-linejoin="round">
    <path d="M230 99 L208 78 L252 78 Z" fill="url(#gold)" opacity="0.9"/>

    <!-- Left swirl cluster -->
    <path d="M30 30 C52 10, 84 12, 101 30 C111 41, 103 55, 88 56 C73 57, 63 49, 64 39 C65 30, 78 27, 86 33 C93 38, 89 48, 79 48"/>
    <path d="M101 30 C114 20, 133 20, 145 30 C156 39, 153 52, 140 55 C129 58, 120 52, 120 44 C121 36, 131 33, 137 37"/>
    <path d="M145 30 C160 20, 180 21, 194 32 C205 40, 201 53, 188 56 C174 60, 164 54, 163 45 C163 38, 173 34, 179 38"/>
    <path d="M194 32 C205 25, 218 23, 230 24"/>

    <!-- Right swirl cluster -->
    <path d="M430 30 C408 10, 376 12, 359 30 C349 41, 357 55, 372 56 C387 57, 397 49, 396 39 C395 30, 382 27, 374 33 C367 38, 371 48, 381 48"/>
    <path d="M359 30 C346 20, 327 20, 315 30 C304 39, 307 52, 320 55 C331 58, 340 52, 340 44 C339 36, 329 33, 323 37"/>
    <path d="M315 30 C300 20, 280 21, 266 32 C255 40, 259 53, 272 56 C286 60, 296 54, 297 45 C297 38, 287 34, 281 38"/>
    <path d="M266 32 C255 25, 242 23, 230 24"/>

    <!-- Secondary lower curls -->
    <path d="M82 57 C96 66, 117 68, 136 62 C127 72, 108 77, 91 74"/>
    <path d="M378 57 C364 66, 343 68, 324 62 C333 72, 352 77, 369 74"/>
    <path d="M180 58 C192 66, 210 69, 230 68 C250 69, 268 66, 280 58"/>
  </g>
</svg>
